<?xml version="1.0" encoding="UTF-8"?><svg id="Layer_1" xmlns="http://www.w3.org/2000/svg" viewBox="0 0 384 512"><defs><style>.cls-1{fill:#fffdfd;}</style></defs><path class="cls-1" d="M192,0c-41.8,0-77.4,26.7-90.5,64h-37.5C28.7,64,0,92.7,0,128V448c0,35.3,28.7,64,64,64H320c35.3,0,64-28.7,64-64V128c0-35.3-28.7-64-64-64h-37.5C269.4,26.7,233.8,0,192,0Zm0,64c17.67,0,32,14.33,32,32s-14.33,32-32,32-32-14.33-32-32,14.33-32,32-32ZM112,192h160c8.8,0,16,7.2,16,16s-7.2,16-16,16H112c-8.8,0-16-7.2-16-16s7.2-16,16-16Z"/></svg>