<?xml version="1.0" encoding="UTF-8"?><svg id="Layer_1" xmlns="http://www.w3.org/2000/svg" viewBox="0 0 159.9 159.8"><defs><style>.cls-1{fill:#fcfcfc;}</style></defs><path class="cls-1" d="M79.83,119.97c-22.66,0-45.32,0-67.99,0-4.35,0-8.45-.86-10.48-5.26-.84-1.82-1.24-4-1.27-6.02-.13-9.25-.09-18.5-.05-27.74,.06-10.76,6.78-18.76,17.41-20.5,2.18-.36,2.6-1.16,2.58-3.19-.1-11.91-.12-23.83-.02-35.74,.07-8.37,3.34-15.18,11.05-18.96,3.03-1.49,6.68-2.37,10.06-2.4C64.11-.07,87.11,0,110.1,.05c5.24,.01,10.05,1.49,13.88,5.26,4.03,3.97,8.12,7.9,11.87,12.13,3.17,3.57,4.04,8.14,4.06,12.82,.04,9.08,.06,18.16-.03,27.24-.02,1.82,.37,2.57,2.34,2.89,10.93,1.79,17.62,9.74,17.65,20.81,.03,9.25,.03,18.5,0,27.74-.01,4.06-1.16,7.77-5.07,9.58-2.1,.97-4.64,1.37-6.99,1.38-22.66,.1-45.32,.06-67.99,.06Zm.18-59.9c12.42,0,24.83-.06,37.25,.05,2.26,.02,2.83-.69,2.78-2.85-.13-6.08-.59-12.23,.09-18.23,.85-7.55-1.4-13.28-7.55-17.53-1.08-.74-2.47-1.47-3.71-1.47-22.08-.09-44.17-.04-66.25-.1-2.05,0-2.74,.57-2.72,2.68,.09,11.58,.1,23.17,0,34.75-.02,2.28,.75,2.77,2.87,2.75,12.42-.09,24.83-.04,37.25-.04Zm55,17.46c-4.03-.02-7.58,3.45-7.58,7.42,0,4.01,3.39,7.45,7.45,7.57,3.91,.11,7.47-3.4,7.55-7.46,.08-4.03-3.37-7.52-7.42-7.54Z"/><path class="cls-1" d="M42.58,130.15c4.65,0,8.97-.05,13.28,.06,.51,.01,1.41,.9,1.42,1.39,.08,7,.2,14-.05,20.99-.16,4.3-3.34,7.17-7.18,7.2-3.81,.03-7.22-2.84-7.38-7.06-.28-7.39-.08-14.8-.08-22.59Z"/><path class="cls-1" d="M117.35,130.15c0,7.78,.2,15.19-.08,22.58-.16,4.22-3.56,7.09-7.38,7.07-3.93-.02-7.1-3.02-7.23-7.44-.21-6.91-.1-13.83-.02-20.74,0-.5,.91-1.39,1.41-1.41,4.31-.11,8.63-.06,13.3-.06Z"/><path class="cls-1" d="M87.53,141.93c-.19,3.98-.2,7.98-.61,11.93-.36,3.51-3.38,5.87-6.92,5.89-3.52,.02-6.78-2.36-6.96-5.83-.37-7.38-.36-14.78-.38-22.17,0-.54,1.06-1.52,1.66-1.54,3.74-.14,7.48-.05,11.22-.08,1.48-.01,1.83,.79,1.82,2.06-.02,3.24,0,6.49,0,9.73,.06,0,.12,0,.18,0Z"/><path class="cls-1" d="M12.71,141.9c0-3.33,.06-6.66-.03-9.99-.03-1.29,.33-1.79,1.67-1.77,3.66,.06,7.33,.05,10.99,0,1.51-.02,2.04,.64,2.03,2.12-.04,6.58,.06,13.16-.06,19.74-.06,3.17-1.3,5.87-4.51,7.15-2.89,1.15-5.52,.64-7.89-1.37-1.93-1.63-2.15-3.86-2.19-6.13-.06-3.25-.01-6.5-.01-9.74Z"/><path class="cls-1" d="M147.02,142.17c0,3.83,.19,7.67-.06,11.48-.22,3.43-2.96,5.79-6.48,6.1-3.25,.29-6.52-1.93-7.39-5.09-.29-1.03-.5-2.12-.51-3.19-.05-6.33,0-12.66-.04-18.99-.01-1.49,.34-2.37,2.06-2.35,3.66,.06,7.33,.06,10.99,0,1.37-.02,1.67,.54,1.64,1.79-.08,3.41-.03,6.83-.03,10.24-.06,0-.12,0-.19,0Z"/></svg>