<?xml version="1.0" encoding="UTF-8"?><svg id="Layer_1" xmlns="http://www.w3.org/2000/svg" viewBox="0 0 15.76 18.85"><defs><style>.cls-1{fill:#f9f7f7;}</style></defs><path class="cls-1" d="M5.07,5.3c0-1.63,1.26-2.94,2.81-2.94,1.12,0,2.09,.68,2.54,1.68,.27,.59,.94,.84,1.5,.56s.8-.98,.53-1.57c-.81-1.79-2.55-3.03-4.58-3.03C5.08,0,2.81,2.37,2.81,5.3v1.77h-.56c-1.24,0-2.25,1.06-2.25,2.36v7.07c0,1.3,1.01,2.36,2.25,2.36H13.51c1.24,0,2.25-1.06,2.25-2.36v-7.07c0-1.3-1.01-2.36-2.25-2.36H5.07v-1.77Z"/></svg>