<?xml version="1.0" encoding="UTF-8"?><svg id="Layer_1" xmlns="http://www.w3.org/2000/svg" viewBox="0 0 20.01 20"><defs><style>.cls-1{isolation:isolate;opacity:.4;}.cls-1,.cls-2{fill:#fff;}.cls-2{fill-rule:evenodd;}</style></defs><g id="Iconly_Bulk_Category"><g id="Category"><path id="Fill_1" class="cls-1" d="M14.08,0h3.39c1.4,0,2.54,1.15,2.54,2.56v3.41c0,1.41-1.14,2.56-2.54,2.56h-3.39c-1.4,0-2.54-1.15-2.54-2.56V2.56c0-1.41,1.14-2.56,2.54-2.56"/><path id="Combined_Shape" class="cls-2" d="M2.54,0h3.39c1.4,0,2.54,1.15,2.54,2.56v3.41c0,1.41-1.14,2.56-2.54,2.56H2.54c-1.4,0-2.54-1.15-2.54-2.56V2.56C0,1.15,1.14,0,2.54,0Zm0,11.47h3.39c1.4,0,2.54,1.15,2.54,2.56v3.41c0,1.41-1.14,2.56-2.54,2.56H2.54c-1.4,0-2.54-1.15-2.54-2.56v-3.41c0-1.41,1.14-2.56,2.54-2.56Zm14.92,0h-3.39c-1.4,0-2.54,1.15-2.54,2.56v3.41c0,1.41,1.14,2.56,2.54,2.56h3.39c1.4,0,2.54-1.15,2.54-2.56v-3.41c0-1.41-1.14-2.56-2.54-2.56Z"/></g></g></svg>