<?xml version="1.0" encoding="UTF-8"?><svg id="Layer_1" xmlns="http://www.w3.org/2000/svg" viewBox="0 0 18.62 14.89"><defs><style>.cls-1{fill:#fcfcfc;}</style></defs><path class="cls-1" d="M1.13,.15C.83-.09,.39-.03,.15,.27c-.24,.3-.18,.74,.12,.98L17.49,14.74c.3,.24,.74,.18,.98-.12s.18-.74-.12-.98l-3.43-2.69c1.14-1.06,1.84-2.45,1.84-3.98,0-3.34-3.33-6.05-7.45-6.05-1.97,0-3.76,.62-5.09,1.64L1.13,.15Zm.73,6.83c0,1.31,.51,2.52,1.39,3.52-.06,.71-.33,1.35-.62,1.83-.16,.27-.32,.48-.44,.63-.06,.07-.11,.13-.14,.17-.02,.02-.03,.03-.04,.04h0c-.13,.14-.17,.34-.1,.51s.24,.29,.43,.29c.83,0,1.68-.26,2.37-.56,.67-.29,1.23-.64,1.58-.89,.92,.33,1.95,.52,3.03,.52s2.1-.19,3.03-.52L2.41,4.69c-.35,.71-.55,1.48-.55,2.29Z"/></svg>