<?xml version="1.0" encoding="UTF-8"?><svg id="Layer_1" xmlns="http://www.w3.org/2000/svg" viewBox="0 0 19.15 17.65"><defs><style>.cls-1{fill:#fcfcfc;}</style></defs><path class="cls-1" d="M12.57,12.14c3.64,0,6.58-2.72,6.58-6.07S16.2,0,12.57,0,5.98,2.72,5.98,6.07c0,.64,.11,1.27,.31,1.85L.26,13.48c-.17,.16-.26,.37-.26,.59v2.76c0,.46,.4,.83,.9,.83H3.89c.5,0,.9-.37,.9-.83v-1.38h1.5c.5,0,.9-.37,.9-.83v-1.38h1.5c.24,0,.47-.09,.64-.24l1.25-1.15c.63,.19,1.31,.29,2.01,.29Zm1.5-8.83c.83,0,1.5,.62,1.5,1.38s-.67,1.38-1.5,1.38-1.5-.62-1.5-1.38,.67-1.38,1.5-1.38Z"/></svg>