<?xml version="1.0" encoding="UTF-8"?><svg id="Layer_1" xmlns="http://www.w3.org/2000/svg" viewBox="0 0 15.41 18.27"><defs><style>.cls-1{fill:#fff;}</style></defs><path class="cls-1" d="M1.61,16.67l-.45,.32c-.13,.09-.28,.14-.45,.14-.39,0-.71-.29-.71-.64V6.85C0,3.07,3.45,0,7.7,0s7.7,3.07,7.7,6.85v9.64c0,.35-.32,.64-.71,.64-.16,0-.32-.05-.45-.14l-.45-.32c-.54-.38-1.32-.32-1.77,.14l-1.22,1.25c-.13,.14-.33,.21-.53,.21s-.4-.08-.53-.21l-1.07-1.09c-.51-.52-1.42-.52-1.93,0l-1.07,1.09c-.13,.14-.33,.21-.53,.21s-.4-.08-.53-.21l-1.22-1.25c-.45-.46-1.23-.52-1.77-.14ZM6.42,6.85c0-.63-.57-1.14-1.28-1.14s-1.28,.51-1.28,1.14,.57,1.14,1.28,1.14,1.28-.51,1.28-1.14Zm3.85,1.14c.71,0,1.28-.51,1.28-1.14s-.57-1.14-1.28-1.14-1.28,.51-1.28,1.14,.57,1.14,1.28,1.14Z"/></svg>